<svg width="79.103119" height="63.997559" viewBox="0 0 79.1031 63.9976" fill="none" xmlns="http://www.w3.org/2000/svg" xmlns:xlink="http://www.w3.org/1999/xlink">
	<desc>
			Created with Pixso.
	</desc>
	<defs/>
	<path id="OM" d="M15.3423 55.2876Q11.5279 55.2876 8.4693 53.6177Q5.41071 51.939 3.66168 48.9858Q1.92145 46.0327 1.92145 42.394Q1.92145 38.7642 3.66168 35.811Q5.41071 32.8579 8.4693 31.188Q11.5279 29.5093 15.3423 29.5093Q19.1216 29.5093 22.1802 31.188Q25.2476 32.8579 26.9703 35.7935Q28.7017 38.729 28.7017 42.394Q28.7017 46.0679 26.9703 49.0034Q25.2476 51.939 22.1802 53.6177Q19.1216 55.2876 15.3423 55.2876ZM15.3423 52.0796Q18.1197 52.0796 20.3345 50.8228Q22.5494 49.5659 23.8238 47.3511Q25.0982 45.1362 25.0982 42.394Q25.0982 39.6606 23.8238 37.4458Q22.5494 35.231 20.3345 33.9741Q18.1197 32.7173 15.3423 32.7173Q12.5738 32.7173 10.3238 33.9741Q8.07379 35.231 6.79059 37.4458Q5.51617 39.6606 5.51617 42.394Q5.51617 45.1362 6.79059 47.3511Q8.07379 49.5659 10.3238 50.8228Q12.5738 52.0796 15.3423 52.0796ZM57.5706 54.9976L57.5355 36.6372L48.43 51.939L46.7777 51.939L37.6634 36.7427L37.6634 54.9976L34.2093 54.9976L34.2093 29.7993L37.1624 29.7993L47.6741 47.5093L58.0452 29.7993L60.9896 29.7993L61.0335 54.9976L57.5706 54.9976Z" fill="#333333" fill-opacity="1.000000" fill-rule="evenodd"/>
	<path id="Vector" d="M76.6783 19.6299L75.2649 19.1978C75.0688 19.1377 74.8618 19.1938 74.7294 19.3433C74.386 19.731 74.0092 20.0996 73.6093 20.4385C70.6451 22.9536 66.9246 23.8125 62.85 22.9233C58.7957 22.0386 56.9322 19.6919 54.353 16.4443C54.1686 16.2119 53.981 15.9756 53.7891 15.7358C53.7673 15.7085 53.7416 15.6724 53.7144 15.6343C53.6428 15.5342 53.5536 15.4097 53.4281 15.2871C53.2576 15.1201 53.0719 14.9648 52.8761 14.8252C52.4716 14.5361 52.2018 14.082 52.136 13.5786L51.7024 10.2568C51.6836 10.1128 51.6098 9.97949 51.4971 9.88672C51.3846 9.79346 51.2423 9.74805 51.1017 9.76074L48.9617 9.94873C48.6692 9.97461 48.4637 10.2383 48.5027 10.5381L48.9186 13.7246C48.9642 14.0732 48.8514 14.4282 48.6092 14.6978C48.2393 15.1094 48.0508 15.6177 48.0643 16.1675C48.2326 23.1162 52.8917 28.2593 60.527 29.9253C63.8224 30.6445 67.3265 30.2144 70.3941 28.7148C71.0115 28.4126 71.5957 28.0747 72.1441 27.7031C72.9085 27.1846 73.6034 26.5996 74.2215 25.9536C75.3264 24.7993 76.1295 23.5063 76.6087 22.1108C76.8142 21.5122 76.9709 20.8916 77.0744 20.2661C77.1202 19.9888 76.948 19.7124 76.6783 19.6299ZM49.6332 10.9873L50.7136 10.8926L51.0011 13.0942L50.5648 13.105L49.9117 13.1211L49.6332 10.9873ZM71.5314 26.7871C68.5608 28.8018 64.5296 29.6958 60.7032 28.8608C53.613 27.3135 49.2877 22.5776 49.1329 16.1919C49.1246 15.8486 49.2808 15.6011 49.4133 15.4536C49.728 15.103 49.9232 14.6685 49.9802 14.21L51.1887 14.1807C51.3811 14.7939 51.7672 15.334 52.2911 15.7075C52.4387 15.813 52.5786 15.9297 52.7067 16.0552C52.7595 16.1069 52.8063 16.1724 52.8607 16.2485C52.8956 16.2974 52.9316 16.3477 52.9728 16.3994C53.1639 16.6382 53.3508 16.8735 53.5345 17.105C56.1583 20.4092 58.2307 23.0186 62.6737 23.9883C64.9004 24.4741 67.0495 24.4727 69.0613 23.9844C70.8865 23.5415 72.5656 22.7075 74.0574 21.5029L74.0933 21.5205L74.2848 21.6143C73.5154 22.8091 72.5337 23.8047 71.3974 24.5752C68.9006 26.2686 65.662 26.8789 62.3163 26.1489C57.1068 25.0122 53.3962 22.2085 51.8678 18.2544C51.758 17.9702 51.4468 17.8198 51.1728 17.9185C50.8987 18.0171 50.7657 18.3271 50.8755 18.6113C52.548 22.9385 56.5485 25.9937 62.1401 27.2139C64.8685 27.8091 67.5782 27.5923 69.9764 26.5869C70.7048 26.2812 71.3903 25.9102 72.0272 25.478C73.3342 24.5913 74.4353 23.4492 75.2776 22.0991L75.424 22.1709C74.6693 24.0171 73.2854 25.5977 71.5314 26.7871ZM75.7706 21.1543L75.5522 21.0479L74.9213 20.7397C75.0568 20.6079 75.1891 20.4731 75.3175 20.3359L75.9274 20.5225C75.8817 20.7349 75.8294 20.9458 75.7706 21.1543Z" fill="#000000" fill-opacity="1.000000" fill-rule="nonzero"/>
</svg>
