<svg width="49.836182" height="49.928467" viewBox="0 0 49.8362 49.9285" fill="none" xmlns="http://www.w3.org/2000/svg" xmlns:xlink="http://www.w3.org/1999/xlink">
	<desc>
			Created with Pixso.
	</desc>
	<defs/>
	<path id="Shape" d="M45.3885 14.6162L43.7545 16.2502C40.2141 13.1643 35.6745 11.4382 30.9545 11.4382C27.7766 11.4382 24.6004 12.2554 21.877 13.7073L28.7758 6.80859C29.3204 7.17114 29.9553 7.35327 30.5919 7.35327C31.4991 7.35327 32.4081 6.99072 33.1332 6.26392C34.5851 4.81201 34.5851 2.54126 33.1332 1.08936C32.4064 0.362549 31.4991 0 30.5919 0C29.6847 0 28.7758 0.362549 28.0507 1.08936C26.871 2.36084 26.689 4.17529 27.506 5.53711L18.7911 14.252L17.157 12.6179L12.7094 17.0654L14.3434 18.6995L5.44641 27.5967C4.90167 27.2341 4.26678 27.052 3.63019 27.052C2.72296 27.052 1.81403 27.4146 1.08893 28.1414C-0.362976 29.5933 -0.362976 31.8638 1.08893 33.3157C1.81573 33.9507 2.72296 34.3149 3.63019 34.3149C4.53748 34.3149 5.44641 33.9524 6.17151 33.2256C7.35107 32.0459 7.5332 30.2297 6.71619 28.7778L13.6149 21.8792C9.98425 28.8699 10.8013 37.5847 16.1562 43.7566L14.5222 45.481L19.0617 49.9285L23.5093 45.481L19.0617 41.0332L17.5179 42.5771C12.2532 36.4033 11.9808 27.5081 16.4285 20.9719L17.1553 21.6987L21.6949 17.251L20.8779 16.5242C23.7834 14.4358 27.3239 13.3464 30.9545 13.3464C35.2217 13.3464 39.2149 14.8901 42.483 17.6135L40.8489 19.1575L45.3885 23.6052L49.8362 19.1575L45.3885 14.6179L45.3885 14.6162ZM29.3204 2.45117C29.683 2.08862 30.1375 1.90649 30.5919 1.90649C31.0464 1.90649 31.4991 2.08862 31.8634 2.45117C32.5902 3.17798 32.5902 4.26733 31.8634 4.99243C31.5009 5.35498 31.0464 5.53711 30.5919 5.53711C30.1375 5.53711 29.6847 5.35498 29.3204 4.99243C28.5936 4.35767 28.5936 3.17627 29.3204 2.45117ZM17.0651 19.1543L15.1588 17.248L17.0651 15.3416L18.9715 17.248L17.0651 19.1543ZM43.4821 19.1543L45.3885 21.0605L47.2949 19.1543L45.3885 17.2478L43.4821 19.1543ZM3.62848 32.4988C4.08295 32.4988 4.53741 32.3167 4.89996 31.9541L4.89996 31.9524C5.62683 31.3174 5.62683 30.1379 4.89996 29.4111C4.53577 29.0486 4.08295 28.8665 3.62848 28.8665C3.17401 28.8665 2.71954 29.0469 2.35699 29.4111C1.99445 29.7754 1.81232 30.228 1.81232 30.6826C1.81232 31.2273 1.99445 31.6816 2.35699 31.9541C2.72125 32.3167 3.17401 32.4988 3.62848 32.4988ZM19.0617 47.3872L20.9681 45.481L19.0617 43.5745L17.1553 45.481L19.0617 47.3872Z" clip-rule="evenodd" fill="#333333" fill-opacity="1.000000" fill-rule="evenodd"/>
</svg>
